<svg width="83" height="115" fill="none" xmlns="http://www.w3.org/2000/svg"><g opacity=".3"><mask id="a" style="mask-type:alpha" maskUnits="userSpaceOnUse" x="11" y="0" width="12" height="11"><path d="M16.79 10.425c2.888 0 5.229-2.334 5.229-5.213C22.019 2.334 19.679 0 16.79 0s-5.229 2.334-5.229 5.212c0 2.88 2.341 5.213 5.229 5.213z" fill="url(#paint0_linear_21_5)"/></mask><g mask="url(#a)"><path d="M16.79 10.425c2.888 0 5.229-2.334 5.229-5.213C22.019 2.334 19.679 0 16.79 0s-5.229 2.334-5.229 5.212c0 2.88 2.341 5.213 5.229 5.213z" fill="url(#paint1_linear_21_5)"/></g><mask id="b" style="mask-type:alpha" maskUnits="userSpaceOnUse" x="41" y="0" width="12" height="11"><path d="M47.072 10.425c2.887 0 5.228-2.334 5.228-5.213C52.3 2.334 49.96 0 47.072 0s-5.229 2.334-5.229 5.212c0 2.88 2.341 5.213 5.229 5.213z" fill="url(#paint2_linear_21_5)"/></mask><g mask="url(#b)"><path d="M47.072 10.425c2.887 0 5.228-2.334 5.228-5.213C52.3 2.334 49.96 0 47.072 0s-5.229 2.334-5.229 5.212c0 2.88 2.341 5.213 5.229 5.213z" fill="url(#paint3_linear_21_5)"/></g><mask id="c" style="mask-type:alpha" maskUnits="userSpaceOnUse" x="72" y="0" width="11" height="11"><path d="M77.353 10.425c2.887 0 5.228-2.334 5.228-5.213 0-2.878-2.34-5.212-5.228-5.212s-5.229 2.334-5.229 5.212c0 2.88 2.341 5.213 5.229 5.213z" fill="url(#paint4_linear_21_5)"/></mask><g mask="url(#c)"><path d="M77.353 10.425c2.887 0 5.228-2.334 5.228-5.213 0-2.878-2.34-5.212-5.228-5.212s-5.229 2.334-5.229 5.212c0 2.88 2.341 5.213 5.229 5.213z" fill="url(#paint5_linear_21_5)"/></g><mask id="d" style="mask-type:alpha" maskUnits="userSpaceOnUse" x="11" y="26" width="12" height="11"><path d="M16.79 36.596c2.888 0 5.229-2.334 5.229-5.213 0-2.878-2.34-5.212-5.228-5.212s-5.229 2.334-5.229 5.212c0 2.88 2.341 5.213 5.229 5.213z" fill="url(#paint6_linear_21_5)"/></mask><g mask="url(#d)"><path d="M16.79 36.596c2.888 0 5.229-2.334 5.229-5.213 0-2.878-2.34-5.212-5.228-5.212s-5.229 2.334-5.229 5.212c0 2.88 2.341 5.213 5.229 5.213z" fill="url(#paint7_linear_21_5)"/></g><mask id="e" style="mask-type:alpha" maskUnits="userSpaceOnUse" x="41" y="26" width="12" height="11"><path d="M47.072 36.596c2.887 0 5.228-2.334 5.228-5.213 0-2.878-2.34-5.212-5.228-5.212s-5.229 2.334-5.229 5.212c0 2.88 2.341 5.213 5.229 5.213z" fill="url(#paint8_linear_21_5)"/></mask><g mask="url(#e)"><path d="M47.072 36.596c2.887 0 5.228-2.334 5.228-5.213 0-2.878-2.34-5.212-5.228-5.212s-5.229 2.334-5.229 5.212c0 2.88 2.341 5.213 5.229 5.213z" fill="url(#paint9_linear_21_5)"/></g><mask id="f" style="mask-type:alpha" maskUnits="userSpaceOnUse" x="72" y="26" width="11" height="11"><path d="M77.353 36.596c2.887 0 5.228-2.334 5.228-5.213 0-2.878-2.34-5.212-5.228-5.212s-5.229 2.334-5.229 5.212c0 2.88 2.341 5.213 5.229 5.213z" fill="url(#paint10_linear_21_5)"/></mask><g mask="url(#f)"><path d="M77.353 36.596c2.887 0 5.228-2.334 5.228-5.213 0-2.878-2.34-5.212-5.228-5.212s-5.229 2.334-5.229 5.212c0 2.88 2.341 5.213 5.229 5.213z" fill="url(#paint11_linear_21_5)"/></g><mask id="g" style="mask-type:alpha" maskUnits="userSpaceOnUse" x="11" y="52" width="12" height="11"><path d="M16.79 62.712c2.888 0 5.229-2.333 5.229-5.212 0-2.879-2.34-5.212-5.228-5.212s-5.229 2.333-5.229 5.212c0 2.879 2.341 5.212 5.229 5.212z" fill="url(#paint12_linear_21_5)"/></mask><g mask="url(#g)"><path d="M16.79 62.712c2.888 0 5.229-2.333 5.229-5.212 0-2.879-2.34-5.212-5.228-5.212s-5.229 2.333-5.229 5.212c0 2.879 2.341 5.212 5.229 5.212z" fill="url(#paint13_linear_21_5)"/></g><mask id="h" style="mask-type:alpha" maskUnits="userSpaceOnUse" x="41" y="52" width="12" height="11"><path d="M47.072 62.712c2.887 0 5.228-2.333 5.228-5.212 0-2.879-2.34-5.212-5.228-5.212s-5.229 2.333-5.229 5.212c0 2.879 2.341 5.212 5.229 5.212z" fill="url(#paint14_linear_21_5)"/></mask><g mask="url(#h)"><path d="M47.072 62.712c2.887 0 5.228-2.333 5.228-5.212 0-2.879-2.34-5.212-5.228-5.212s-5.229 2.333-5.229 5.212c0 2.879 2.341 5.212 5.229 5.212z" fill="url(#paint15_linear_21_5)"/></g><mask id="i" style="mask-type:alpha" maskUnits="userSpaceOnUse" x="72" y="52" width="11" height="11"><path d="M77.353 62.712c2.887 0 5.228-2.333 5.228-5.212 0-2.879-2.34-5.212-5.228-5.212s-5.229 2.333-5.229 5.212c0 2.879 2.341 5.212 5.229 5.212z" fill="url(#paint16_linear_21_5)"/></mask><g mask="url(#i)"><path d="M77.353 62.712c2.887 0 5.228-2.333 5.228-5.212 0-2.879-2.34-5.212-5.228-5.212s-5.229 2.333-5.229 5.212c0 2.879 2.341 5.212 5.229 5.212z" fill="url(#paint17_linear_21_5)"/></g><mask id="j" style="mask-type:alpha" maskUnits="userSpaceOnUse" x="11" y="78" width="12" height="11"><path d="M16.79 88.883c2.888 0 5.229-2.333 5.229-5.212 0-2.879-2.34-5.213-5.228-5.213s-5.229 2.334-5.229 5.213 2.341 5.212 5.229 5.212z" fill="url(#paint18_linear_21_5)"/></mask><g mask="url(#j)"><path d="M16.79 88.883c2.888 0 5.229-2.333 5.229-5.212 0-2.879-2.34-5.213-5.228-5.213s-5.229 2.334-5.229 5.213 2.341 5.212 5.229 5.212z" fill="url(#paint19_linear_21_5)"/></g><mask id="k" style="mask-type:alpha" maskUnits="userSpaceOnUse" x="41" y="78" width="12" height="11"><path d="M47.072 88.883c2.887 0 5.228-2.333 5.228-5.212 0-2.879-2.34-5.213-5.228-5.213s-5.229 2.334-5.229 5.213 2.341 5.212 5.229 5.212z" fill="url(#paint20_linear_21_5)"/></mask><g mask="url(#k)"><path d="M47.072 88.883c2.887 0 5.228-2.333 5.228-5.212 0-2.879-2.34-5.213-5.228-5.213s-5.229 2.334-5.229 5.213 2.341 5.212 5.229 5.212z" fill="url(#paint21_linear_21_5)"/></g><mask id="l" style="mask-type:alpha" maskUnits="userSpaceOnUse" x="72" y="78" width="11" height="11"><path d="M77.353 88.883c2.887 0 5.228-2.333 5.228-5.212 0-2.879-2.34-5.213-5.228-5.213s-5.229 2.334-5.229 5.213 2.341 5.212 5.229 5.212z" fill="url(#paint22_linear_21_5)"/></mask><g mask="url(#l)"><path d="M77.353 88.883c2.887 0 5.228-2.333 5.228-5.212 0-2.879-2.34-5.213-5.228-5.213s-5.229 2.334-5.229 5.213 2.341 5.212 5.229 5.212z" fill="url(#paint23_linear_21_5)"/></g><mask id="m" style="mask-type:alpha" maskUnits="userSpaceOnUse" x="11" y="104" width="12" height="11"><path d="M16.79 115c2.888 0 5.229-2.334 5.229-5.212 0-2.879-2.34-5.213-5.228-5.213s-5.229 2.334-5.229 5.213c0 2.878 2.341 5.212 5.229 5.212z" fill="url(#paint24_linear_21_5)"/></mask><g mask="url(#m)"><path d="M16.79 115c2.888 0 5.229-2.334 5.229-5.212 0-2.879-2.34-5.213-5.228-5.213s-5.229 2.334-5.229 5.213c0 2.878 2.341 5.212 5.229 5.212z" fill="url(#paint25_linear_21_5)"/></g><path d="M47.072 115c2.887 0 5.228-2.334 5.228-5.212 0-2.879-2.34-5.213-5.228-5.213s-5.229 2.334-5.229 5.213c0 2.878 2.341 5.212 5.229 5.212z" fill="url(#paint26_linear_21_5)"/><mask id="n" style="mask-type:alpha" maskUnits="userSpaceOnUse" x="72" y="104" width="11" height="11"><path d="M77.353 115c2.887 0 5.228-2.334 5.228-5.212 0-2.879-2.34-5.213-5.228-5.213s-5.229 2.334-5.229 5.213c0 2.878 2.341 5.212 5.229 5.212z" fill="url(#paint27_linear_21_5)"/></mask><g mask="url(#n)"><path d="M77.353 115c2.887 0 5.228-2.334 5.228-5.212 0-2.879-2.34-5.213-5.228-5.213s-5.229 2.334-5.229 5.213c0 2.878 2.341 5.212 5.229 5.212z" fill="url(#paint28_linear_21_5)"/></g></g><defs><linearGradient id="paint0_linear_21_5" x1="58.405" y1="110.551" x2="-12.997" y2="-71.253" gradientUnits="userSpaceOnUse"><stop/><stop offset="1" stop-color="#fff"/></linearGradient><linearGradient id="paint1_linear_21_5" x1="58.405" y1="110.551" x2="-12.997" y2="-71.253" gradientUnits="userSpaceOnUse"><stop stop-color="#97C3F9"/><stop offset="1" stop-color="#93C1F9"/></linearGradient><linearGradient id="paint2_linear_21_5" x1="84.609" y1="100.259" x2="13.207" y2="-81.544" gradientUnits="userSpaceOnUse"><stop/><stop offset="1" stop-color="#fff"/></linearGradient><linearGradient id="paint3_linear_21_5" x1="84.609" y1="100.259" x2="13.207" y2="-81.544" gradientUnits="userSpaceOnUse"><stop stop-color="#97C3F9"/><stop offset="1" stop-color="#93C1F9"/></linearGradient><linearGradient id="paint4_linear_21_5" x1="110.813" y1="89.968" x2="39.412" y2="-91.836" gradientUnits="userSpaceOnUse"><stop/><stop offset="1" stop-color="#fff"/></linearGradient><linearGradient id="paint5_linear_21_5" x1="110.813" y1="89.968" x2="39.412" y2="-91.836" gradientUnits="userSpaceOnUse"><stop stop-color="#97C3F9"/><stop offset="1" stop-color="#93C1F9"/></linearGradient><linearGradient id="paint6_linear_21_5" x1="49.462" y1="114.062" x2="-21.938" y2="-67.74" gradientUnits="userSpaceOnUse"><stop/><stop offset="1" stop-color="#fff"/></linearGradient><linearGradient id="paint7_linear_21_5" x1="49.462" y1="114.062" x2="-21.938" y2="-67.74" gradientUnits="userSpaceOnUse"><stop stop-color="#97C3F9"/><stop offset="1" stop-color="#93C1F9"/></linearGradient><linearGradient id="paint8_linear_21_5" x1="75.667" y1="103.771" x2="4.266" y2="-78.032" gradientUnits="userSpaceOnUse"><stop/><stop offset="1" stop-color="#fff"/></linearGradient><linearGradient id="paint9_linear_21_5" x1="75.667" y1="103.771" x2="4.266" y2="-78.032" gradientUnits="userSpaceOnUse"><stop stop-color="#97C3F9"/><stop offset="1" stop-color="#93C1F9"/></linearGradient><linearGradient id="paint10_linear_21_5" x1="101.871" y1="93.479" x2="30.471" y2="-88.323" gradientUnits="userSpaceOnUse"><stop/><stop offset="1" stop-color="#fff"/></linearGradient><linearGradient id="paint11_linear_21_5" x1="101.871" y1="93.479" x2="30.471" y2="-88.323" gradientUnits="userSpaceOnUse"><stop stop-color="#97C3F9"/><stop offset="1" stop-color="#93C1F9"/></linearGradient><linearGradient id="paint12_linear_21_5" x1="40.52" y1="117.575" x2="-30.881" y2="-64.229" gradientUnits="userSpaceOnUse"><stop/><stop offset="1" stop-color="#fff"/></linearGradient><linearGradient id="paint13_linear_21_5" x1="40.52" y1="117.575" x2="-30.881" y2="-64.229" gradientUnits="userSpaceOnUse"><stop stop-color="#97C3F9"/><stop offset="1" stop-color="#93C1F9"/></linearGradient><linearGradient id="paint14_linear_21_5" x1="66.724" y1="107.283" x2="-4.677" y2="-74.52" gradientUnits="userSpaceOnUse"><stop/><stop offset="1" stop-color="#fff"/></linearGradient><linearGradient id="paint15_linear_21_5" x1="66.724" y1="107.283" x2="-4.677" y2="-74.52" gradientUnits="userSpaceOnUse"><stop stop-color="#97C3F9"/><stop offset="1" stop-color="#93C1F9"/></linearGradient><linearGradient id="paint16_linear_21_5" x1="92.929" y1="96.992" x2="21.527" y2="-84.812" gradientUnits="userSpaceOnUse"><stop/><stop offset="1" stop-color="#fff"/></linearGradient><linearGradient id="paint17_linear_21_5" x1="92.929" y1="96.992" x2="21.527" y2="-84.812" gradientUnits="userSpaceOnUse"><stop stop-color="#97C3F9"/><stop offset="1" stop-color="#93C1F9"/></linearGradient><linearGradient id="paint18_linear_21_5" x1="31.578" y1="121.087" x2="-39.824" y2="-60.717" gradientUnits="userSpaceOnUse"><stop/><stop offset="1" stop-color="#fff"/></linearGradient><linearGradient id="paint19_linear_21_5" x1="31.578" y1="121.087" x2="-39.824" y2="-60.717" gradientUnits="userSpaceOnUse"><stop stop-color="#97C3F9"/><stop offset="1" stop-color="#93C1F9"/></linearGradient><linearGradient id="paint20_linear_21_5" x1="57.782" y1="110.795" x2="-13.62" y2="-71.008" gradientUnits="userSpaceOnUse"><stop/><stop offset="1" stop-color="#fff"/></linearGradient><linearGradient id="paint21_linear_21_5" x1="57.782" y1="110.795" x2="-13.62" y2="-71.008" gradientUnits="userSpaceOnUse"><stop stop-color="#97C3F9"/><stop offset="1" stop-color="#93C1F9"/></linearGradient><linearGradient id="paint22_linear_21_5" x1="83.986" y1="100.504" x2="12.585" y2="-81.3" gradientUnits="userSpaceOnUse"><stop/><stop offset="1" stop-color="#fff"/></linearGradient><linearGradient id="paint23_linear_21_5" x1="83.986" y1="100.504" x2="12.585" y2="-81.3" gradientUnits="userSpaceOnUse"><stop stop-color="#97C3F9"/><stop offset="1" stop-color="#93C1F9"/></linearGradient><linearGradient id="paint24_linear_21_5" x1="22.635" y1="124.599" x2="-48.766" y2="-57.205" gradientUnits="userSpaceOnUse"><stop/><stop offset="1" stop-color="#fff"/></linearGradient><linearGradient id="paint25_linear_21_5" x1="22.635" y1="124.599" x2="-48.766" y2="-57.205" gradientUnits="userSpaceOnUse"><stop stop-color="#97C3F9"/><stop offset="1" stop-color="#93C1F9"/></linearGradient><linearGradient id="paint26_linear_21_5" x1="48.84" y1="114.307" x2="-22.562" y2="-67.496" gradientUnits="userSpaceOnUse"><stop stop-color="#97C3F9"/><stop offset="1" stop-color="#93C1F9"/></linearGradient><linearGradient id="paint27_linear_21_5" x1="75.044" y1="104.016" x2="3.642" y2="-77.788" gradientUnits="userSpaceOnUse"><stop/><stop offset="1" stop-color="#fff"/></linearGradient><linearGradient id="paint28_linear_21_5" x1="75.044" y1="104.016" x2="3.642" y2="-77.788" gradientUnits="userSpaceOnUse"><stop stop-color="#97C3F9"/><stop offset="1" stop-color="#93C1F9"/></linearGradient></defs></svg>